PathFileType	4	(X/Y/Z)	OpenSim_Sub04_CSStiffKnee_Accel.trc
DataRate	CameraRate	NumFrames	NumMarkers	Units	OrigDataRate	OrigDataStartFrame	OrigNumFrames
100	100	27	8	m	100	1854	7413
Frame#	Time	torso_imu_offset_imu	pelvis_imu_offset_imu	tibia_r_imu_offset_imu	femur_r_imu_offset_imu	tibia_l_imu_offset_imu	femur_l_imu_offset_imu	toes_r_imu_offset_imu	toes_l_imu_offset_imu
				X1	Y1	Z1	X2	Y2	Z2	X3	Y3	Z3	X4	Y4	Z4	X5	Y5	Z5	X6	Y6	Z6	X7	Y7	Z7	X8		Y8	Z8	

1854	18.53000000	-7.07893227	0.47004426	7.11926736	8.05216888	3.30832425	4.39143145	9.66693217	1.19016308	0.65841541	9.09153354	-1.97819834	-0.15820514	8.76484432	-4.53307354	1.04934776	7.47964800	0.34714952	-0.01729001	5.92698572	-1.43307643	7.73126665	9.38416703	0.66872914	9.27380239
1855	18.54000000	-7.15435742	0.42472010	7.28745364	7.95453808	3.40976672	4.37547282	9.53129251	1.22180889	1.06647049	9.08301900	-2.37772998	-0.18067772	8.86772438	-4.39046196	1.38240544	7.56554180	0.37149864	0.65255608	5.74113596	-1.29822120	7.99326594	11.21455339	0.20245667	9.53812811
1856	18.55000000	-7.18935085	0.43709653	7.44581992	7.83301742	3.40068131	4.33832302	9.68657476	0.87784982	1.31544548	9.29187743	-2.25669391	-0.16114097	8.93570731	-4.53049212	1.44405532	8.04215694	0.33843187	0.63781231	5.99604948	-1.04819811	7.88254516	12.21453887	-0.66636865	9.29194316
1857	18.56000000	-7.16861220	0.37962214	7.59662913	7.61094333	3.28377717	4.25375202	9.96326574	0.51296615	1.57665208	9.49479586	-2.22544156	-0.03873780	9.02638971	-4.83487902	1.19101640	8.69653222	0.22935249	0.25919104	5.94633111	-1.00755367	7.83016669	11.04664627	-0.18428385	8.66721744
1858	18.57000000	-7.26672734	0.33099453	7.71678474	7.52570904	3.11967773	4.14456361	10.02559261	0.31231175	1.68172082	9.42683251	-1.90252799	0.09624260	8.96205617	-5.51845045	0.85369002	9.17844923	-0.04661380	0.03438306	5.67186407	-1.08479550	8.03943028	10.33150429	1.81223574	8.36380824
1859	18.58000000	-7.44001043	0.27772988	7.64848709	7.55930083	2.83793665	4.08233417	9.97094789	0.19073112	1.44715314	9.19646824	-2.12248439	0.14139264	8.85496874	-5.71506683	0.61196422	9.47338189	-0.35199153	-0.22082872	5.76698116	-1.07701581	8.06123629	11.32166411	3.83175060	8.26492959
1860	18.59000000	-7.46852444	0.26363397	7.70516129	7.76801429	2.51902654	4.07227197	9.99340248	-0.01510855	1.34394929	9.17545801	-2.16295711	0.13625806	9.03645045	-4.84786210	0.77675214	9.63560805	-0.71583284	-0.46536676	5.58699865	-1.22471848	8.14261941	11.66187362	4.44882443	7.72467757
1861	18.60000000	-7.61902220	0.23756404	7.77914755	8.01887118	2.14691998	4.02393348	10.16313907	-0.32408460	1.14141748	9.04556028	-1.83079758	0.15418328	9.43198853	-3.89449135	1.09601021	9.60542774	-1.03350054	-0.81685022	5.58542350	-1.20749295	8.26822913	11.34612022	3.86186172	6.62657035
1862	18.61000000	-7.84971065	0.35538043	7.94433784	8.29812831	1.79711914	3.98296697	10.35268568	-0.51164790	0.91530365	8.81837820	-2.42979184	0.09115961	9.67092493	-3.25289765	1.16544654	9.39314994	-1.15473327	-1.08206830	5.67817660	-1.32271326	8.16744016	11.45704582	2.73993261	5.43543718
1863	18.62000000	-7.98640072	0.45030903	7.97289884	8.55365677	1.53341030	3.97625815	10.43757475	-0.54996555	0.75153431	8.79902854	-3.00302860	-0.15174406	9.68004247	-2.61928324	1.37655304	9.05948545	-1.06437084	-0.96916874	5.55528893	-1.48570224	8.10542687	11.91626359	2.53921239	4.56475427
1864	18.63000000	-8.06745064	0.50302594	7.98323846	8.61362252	1.27109208	3.94484588	10.38138927	-0.45804123	0.54851302	8.61280739	-3.44649343	-0.26504198	9.52737303	-2.15399081	1.51637330	9.03972566	-0.84689059	-0.67447305	5.44670839	-1.52857809	8.26395415	12.19390039	1.09606035	4.53003966
1865	18.64000000	-8.09060419	0.51214638	8.02219582	8.56357435	1.13506104	3.95210962	10.26707566	-0.08440933	0.62340622	8.43998938	-3.84185137	-0.27172544	9.48860571	-2.53943254	1.35670395	9.20466225	-0.43798980	-0.42188239	5.80329337	-1.52767828	8.13519962	11.40507182	1.65717983	2.62728792
1866	18.65000000	-8.08790091	0.49649703	8.08295047	8.50250955	1.10244187	3.86137127	10.20460776	0.46305659	0.70361660	8.50597273	-4.12358701	-0.25342971	9.50795845	-3.18588346	1.20296946	9.35923446	0.11755464	-0.31965960	5.90747272	-1.52334020	8.06405355	12.42769609	4.11668757	1.55582199
1867	18.66000000	-8.06348582	0.48840633	8.14867634	8.40522269	1.12304162	3.73978833	10.28739360	1.01874887	0.95315029	8.57748677	-4.36924001	-0.25346514	9.14738832	-3.44418859	1.10901413	9.49028696	0.59000028	-0.24344425	5.77335542	-1.50952304	8.26687614	12.97349919	6.25637069	2.00053123
1868	18.67000000	-7.88822754	0.43885923	8.07760007	8.36914159	1.30689539	3.54777274	10.49082927	1.48054337	1.66502046	8.60332482	-4.37780639	-0.28375400	8.79625526	-3.75990530	0.81570794	9.31085632	0.82468869	-0.11924463	5.91038181	-1.16305804	8.50040395	12.55728029	7.91806990	1.29784642
1869	18.68000000	-7.82694632	0.40643661	8.05391658	8.40073729	1.54842994	3.42625454	10.73253416	1.53332691	1.96919164	8.85218362	-4.29462026	-0.13579540	8.77921218	-3.88761158	0.22144135	9.10239053	0.83961382	-0.04149667	5.38016800	-1.39320205	8.65478285	14.03712676	5.49582501	0.11805106
1870	18.69000000	-7.95549292	0.37636028	8.12775151	8.52329646	1.77194397	3.37454090	10.78519384	1.15288700	1.54743381	9.20776015	-3.90291753	0.21534582	8.93587562	-3.67903693	-0.12152268	8.57602081	0.86356386	-0.00894489	5.77978580	-1.41065537	8.63357345	16.00524349	2.71553878	-0.63160745
1871	18.70000000	-7.97265821	0.35966898	8.20794806	8.63071212	2.01892203	3.31143687	10.64525205	0.35538441	1.97253339	9.46870969	-3.20720342	0.46651901	8.92220227	-4.15012544	-0.22159162	7.86539981	0.76613422	-0.16488483	5.89903500	-1.19067415	8.89613650	17.43838847	5.76613967	-0.68561505
1872	18.71000000	-7.89205681	0.29691412	8.19938906	8.70462473	2.21317920	3.47321458	10.63704488	-0.49006383	2.66215672	9.74703143	-2.97199258	0.57720484	8.73262957	-5.93922108	-0.63671387	7.54344778	0.57303374	-0.30282728	5.34851367	-1.99123373	8.97690529	28.75767302	6.13084614	-0.04833115
1873	18.72000000	-7.87824644	0.21250067	8.37052325	8.79742102	2.33893731	3.83391619	10.79624351	-1.45154112	1.84843906	9.91122649	-3.13927724	0.48768658	8.48505904	-7.96273412	-2.36674495	7.54528557	0.43696480	-0.45507900	4.99373874	-1.18576225	9.80373462	37.52033752	-17.02712635	10.97891295
1874	18.73000000	-8.10158840	0.16871256	8.79377491	8.98496494	2.25850355	4.13151478	12.11225613	-2.40763772	2.57501134	10.06320971	-3.53383986	0.50457098	8.76806580	-14.11777414	-4.91766007	8.42306641	-0.14291386	-0.51554503	5.03495867	-0.71732810	10.67628807	5.80133190	-14.20664168	11.14139032
1875	18.74000000	-8.75767737	-0.02478555	9.12825508	9.34002691	2.10462878	4.32061255	14.44632742	-2.91623393	4.69347997	10.78960072	-4.24638788	0.65824742	11.53955864	-22.05173653	-1.27777563	9.66446666	-1.37772080	-0.95297464	5.17453042	-0.81228366	11.23817355	3.00755533	7.51610380	13.28972978
1876	18.75000000	-9.15819679	-0.25868184	9.31624616	9.75059841	2.11316121	4.86004616	15.70211890	-3.04994257	5.18881913	11.60287276	-5.31076523	0.62706438	10.37173631	-20.80373378	1.23207279	11.22467666	-3.46501658	-1.85290170	5.38249495	-0.60648641	11.61884498	7.77447965	3.68149765	12.97389240
1877	18.76000000	-9.05113578	-0.42476645	9.47877235	10.26711231	1.98752893	5.60360867	15.86402427	-4.07058821	4.79139665	11.90714613	-6.44595065	0.73282512	6.89855981	-8.68133886	1.72614132	12.68977415	-6.20935505	-2.84021960	5.26268641	-0.69840838	12.21433288	4.43425010	-0.55846624	10.60311432
1878	18.77000000	-9.10439427	-0.60795028	9.67484010	10.73134103	1.71195245	6.13270755	16.54406997	-5.22093344	5.24348201	11.93051981	-7.25514723	1.15991116	7.41980893	-1.18587324	1.48414216	13.36963842	-7.92652227	-4.08413533	5.47850103	-1.23739102	13.18370342	5.14182257	3.88970855	12.15459885
1879	18.78000000	-8.88977139	-0.88962755	9.65775315	10.92820441	1.34816473	6.53941496	17.61750204	-5.51712590	5.38682711	11.53498743	-7.63143446	1.65716481	9.36034075	-1.01341874	0.94244476	12.57061869	-8.22923104	-4.89962304	5.32964653	-2.49970225	13.23951152	4.28029820	3.04949970	11.33798528
1880	18.79000000	-8.12003557	-1.01440763	9.35363343	10.67837962	0.95409100	6.68168961	18.64772475	-5.04982508	4.52445614	11.19849692	-7.85739893	2.39063861	11.07113802	-2.23456206	1.15464342	11.84281011	-6.56171449	-4.05547855	5.79377439	-1.59070814	14.25066175	6.38529233	0.38568259	11.06532773
